<?xml version="1.0" encoding="UTF-8"?>
<svg width="126px" height="14px" viewBox="0 0 126 14" version="1.1" xmlns="http://www.w3.org/2000/svg" xmlns:xlink="http://www.w3.org/1999/xlink">
    <!-- Generator: sketchtool 60 (101010) - https://sketch.com -->
    <title>3588E17B-F96E-489B-AC4D-4A1DB5B97EBB</title>
    <desc>Created with sketchtool.</desc>
    <g id="Page-1" stroke="none" stroke-width="1" fill="none" fill-rule="evenodd">
        <g id="Updated-Home---11/18/19---1440" transform="translate(-56.000000, -78.000000)" fill="#252B2B">
            <g id="Group" transform="translate(0.000000, 40.000000)">
                <g id="ALPHA-Nav-Logo" transform="translate(56.000000, 38.000000)">
                    <path d="M66.5253289,3.37057368 C66.5253289,2.53941579 65.9712237,2.0846 64.7843553,2.0846 L56.0032237,2.0846 L56.0032237,6.75341579 L64.7843553,6.75341579 C65.9712237,6.75341579 66.5253289,6.29767895 66.5253289,5.46652105 L66.5253289,3.37057368 Z M56.0032237,8.80902105 L56.0032237,13.9531 L53.3708553,13.9531 L53.3708553,0.0280736842 L64.7843553,0.0280736842 C67.9490921,0.0280736842 69.1567763,1.39362632 69.1567763,3.39065263 L69.1567763,5.44644211 C69.1567763,7.44586316 67.9490921,8.80902105 64.7843553,8.80902105 L56.0032237,8.80902105 Z" id="Fill-2"></path>
                    <polygon id="Fill-4" points="92.9455026 13.9531553 92.9455026 7.62312895 81.5528184 7.62312895 81.5528184 13.9531553 78.9195289 13.9531553 78.9195289 0.0286815789 81.5528184 0.0286815789 81.5528184 5.56641842 92.9455026 5.56641842 92.9455026 0.0286815789 95.5752921 0.0286815789 95.5752921 13.9531553"></polygon>
                    <polygon id="Fill-6" points="122.191982 13.9531553 115.010903 2.73841842 107.715245 13.9531553 104.785929 13.9531553 114.044534 0.0286815789 115.962718 0.0286815789 125.160166 13.9531553"></polygon>
                    <path d="M18.6790026,11.0815158 C17.4405553,9.24880526 16.20045,7.41296316 14.9620026,5.57933158 C13.9167921,4.03085789 12.8725026,2.48385789 11.8272921,0.937042105 C11.6371868,0.655936842 11.4480026,0.374094737 11.2578974,0.0940947368 C11.2562395,0.0907789474 11.2531079,0.0859894737 11.2499763,0.0843315789 C11.2282395,0.0513578947 11.1934237,0.0279631579 11.1444237,0.0279631579 L10.0572132,0.0279631579 L9.38816053,0.0279631579 C9.31889737,0.0279631579 9.28426579,0.0762263158 9.25129211,0.125226316 C9.02342368,0.463436842 8.79481842,0.801831579 8.56676579,1.14004211 C7.48305526,2.74230526 6.40137105,4.34714737 5.31766053,5.95051579 C4.09450263,7.76075263 2.87208158,9.56933158 1.65039737,11.3812263 C1.11913421,12.1670684 0.588423684,12.9545684 0.0553184211,13.7405947 C-0.000128947368,13.8242263 0.0755815789,13.9369632 0.171186842,13.9369632 L2.76984474,13.9369632 C2.93176579,13.9369632 3.14913421,13.9900158 3.24971316,13.8371211 C3.33923947,13.6969368 3.43023947,13.5569368 3.52031842,13.4169368 C4.53329211,11.8594368 5.54387105,10.3004632 6.55463421,8.73983158 C7.64958158,7.05375263 8.74305526,5.36675263 9.83837105,3.68141053 C9.98168684,3.45998947 10.1233447,3.24077895 10.2650026,3.02101579 C10.9148974,4.02201579 11.5647921,5.02375263 12.2113711,6.02309474 C13.4216342,7.88804211 14.6342921,9.75280526 15.8428974,11.6179368 C16.2455816,12.2378053 16.6475289,12.8580421 17.0500289,13.4780947 C17.1307132,13.6035421 17.21195,13.7291737 17.29245,13.8533316 C17.3915553,14.0062263 17.7312395,13.9369632 17.8843184,13.9369632 L20.3613974,13.9369632 C20.4553447,13.9369632 20.5312395,13.8242263 20.47395,13.7405947 C19.8748974,12.8547263 19.2782395,11.9673842 18.6790026,11.0815158" id="Fill-8"></path>
                    <path d="M13.4072289,0.225234211 C14.3887026,1.65360263 15.3694395,3.08141842 16.3525711,4.50997105 C16.4485447,4.64849737 16.5419395,4.78849737 16.6393868,4.92702368 C16.6410447,4.93033947 16.6441763,4.93181316 16.6458342,4.93678684 C16.6675711,4.96810263 16.7022026,4.99149737 16.7512026,4.99149737 L17.7514658,4.99149737 C17.8448605,4.99149737 17.9205711,4.87949737 17.8649395,4.79494474 C16.8880711,3.36731316 15.91065,1.93876053 14.9330447,0.511128947 C14.8372553,0.370944737 14.7479132,0.188944737 14.6263342,0.0673657895 C14.5778868,0.0191026316 14.50715,0.0296026316 14.4459921,0.0296026316 L14.0963605,0.0296026316 L13.5190447,0.0296026316 C13.4258342,0.0296026316 13.3492026,0.141418421 13.4072289,0.225234211" id="Fill-10"></path>
                    <polygon id="Fill-1" points="29.6634395 13.9531553 29.6634395 0.0286815789 32.3134921 0.0286815789 32.3134921 11.8964447 43.6087289 11.8964447 43.6087289 13.9531553"></polygon>
                </g>
            </g>
        </g>
    </g>
</svg>